<svg width="14" height="14" viewBox="0 0 14 14" fill="none" xmlns="http://www.w3.org/2000/svg">
<path d="M13.1689 3.11704L10.8855 0.833703C10.5875 0.553783 10.197 0.393169 9.78831 0.382413C9.37959 0.371658 8.98118 0.511511 8.66887 0.77537L1.16887 8.27537C0.899505 8.54701 0.731787 8.90304 0.693867 9.2837L0.335534 12.7587C0.324308 12.8808 0.340146 13.0038 0.381918 13.119C0.42369 13.2343 0.490369 13.3389 0.5772 13.4254C0.655067 13.5026 0.747414 13.5637 0.848945 13.6052C0.950476 13.6467 1.05919 13.6677 1.16887 13.667H1.24387L4.71887 13.3504C5.09953 13.3125 5.45556 13.1447 5.7272 12.8754L13.2272 5.37537C13.5183 5.06784 13.6756 4.65746 13.6647 4.23415C13.6537 3.81084 13.4755 3.40913 13.1689 3.11704ZM4.56887 11.6837L2.06887 11.917L2.29387 9.41704L7.0022 4.76704L9.2522 7.01704L4.56887 11.6837ZM10.3355 5.90037L8.1022 3.66704L9.7272 2.00037L12.0022 4.27537L10.3355 5.90037Z" fill="black"/>
</svg>
