<svg width="19" height="19" viewBox="0 0 19 19" fill="none" xmlns="http://www.w3.org/2000/svg">
<path fill-rule="evenodd" clip-rule="evenodd" d="M8.74009 2.46345C7.07542 2.46345 5.47894 3.12474 4.30184 4.30184C3.12474 5.47894 2.46345 7.07542 2.46345 8.74009C2.46345 10.4048 3.12474 12.0012 4.30184 13.1783C5.47894 14.3554 7.07542 15.0167 8.74009 15.0167C10.3962 15.0167 11.9848 14.3622 13.1601 13.1965C13.1673 13.1889 13.1746 13.1813 13.1821 13.1739C13.1888 13.1672 13.1955 13.1607 13.2023 13.1542C14.3644 11.9795 15.0167 10.3934 15.0167 8.74009C15.0167 7.07542 14.3554 5.47894 13.1783 4.30184C12.0012 3.12474 10.4048 2.46345 8.74009 2.46345ZM2.84269 2.84269C4.40677 1.2786 6.52813 0.399902 8.74009 0.399902C10.952 0.399902 13.0734 1.2786 14.6375 2.84269C16.2016 4.40677 17.0803 6.52813 17.0803 8.74009C17.0803 10.6039 16.4564 12.4035 15.3243 13.8595L18.4984 17.0392C18.9009 17.4425 18.9003 18.0958 18.4971 18.4984C18.0938 18.9009 17.4405 18.9003 17.0379 18.4971L13.8658 15.3193C12.4087 16.4546 10.6067 17.0803 8.74009 17.0803C6.52813 17.0803 4.40677 16.2016 2.84269 14.6375C1.2786 13.0734 0.399902 10.952 0.399902 8.74009C0.399902 6.52813 1.2786 4.40677 2.84269 2.84269Z" fill="black"/>
</svg>
