<svg width="18" height="18" viewBox="0 0 18 18" fill="none" xmlns="http://www.w3.org/2000/svg">
<path d="M13.1469 1.95312V2.10312H13.2969H16.9062C17.2037 2.10312 17.4438 2.34319 17.4438 2.64062V16.9062C17.4438 17.2037 17.2037 17.4438 16.9062 17.4438H1.09375C0.796319 17.4438 0.55625 17.2037 0.55625 16.9062V2.64062C0.55625 2.34319 0.796319 2.10312 1.09375 2.10312H4.70312H4.85313V1.95312V0.578125C4.85313 0.566437 4.86331 0.55625 4.875 0.55625H6.07812C6.08981 0.55625 6.1 0.566437 6.1 0.578125V1.95312V2.10312H6.25H11.75H11.9V1.95312V0.578125C11.9 0.566437 11.9102 0.55625 11.9219 0.55625H13.125C13.1367 0.55625 13.1469 0.566437 13.1469 0.578125V1.95312ZM16.0469 16.1969H16.1969V16.0469V7.88281V7.73281H16.0469H1.95312H1.80313V7.88281V16.0469V16.1969H1.95312H16.0469ZM1.80313 6.42188V6.57188H1.95312H16.0469H16.1969V6.42188V3.5V3.35H16.0469H13.2969H13.1469V3.5V4.53125C13.1469 4.54294 13.1367 4.55312 13.125 4.55312H11.9219C11.9102 4.55312 11.9 4.54294 11.9 4.53125V3.5V3.35H11.75H6.25H6.1V3.5V4.53125C6.1 4.54294 6.08981 4.55312 6.07812 4.55312H4.875C4.86331 4.55312 4.85313 4.54294 4.85313 4.53125V3.5V3.35H4.70312H1.95312H1.80313V3.5V6.42188Z" fill="#868686" stroke="white" stroke-width="0.3"/>
</svg>
