<svg width="16" height="16" viewBox="0 0 16 16" fill="none" xmlns="http://www.w3.org/2000/svg">
<path d="M14.7696 12.9141C14.4011 12.0414 13.8665 11.2486 13.1954 10.5801C12.5263 9.90959 11.7337 9.37501 10.8614 9.00586C10.8536 9.00195 10.8458 9 10.8379 8.99609C12.0547 8.11719 12.8458 6.68555 12.8458 5.07031C12.8458 2.39453 10.6778 0.226562 8.002 0.226562C5.32622 0.226562 3.15825 2.39453 3.15825 5.07031C3.15825 6.68555 3.94927 8.11719 5.16606 8.99805C5.15825 9.00195 5.15044 9.00391 5.14263 9.00781C4.26763 9.37695 3.48247 9.90625 2.80864 10.582C2.13815 11.2511 1.60357 12.0437 1.23442 12.916C0.871772 13.77 0.676185 14.6856 0.658252 15.6133C0.657731 15.6341 0.661387 15.6549 0.669006 15.6743C0.676624 15.6937 0.688051 15.7114 0.702612 15.7263C0.717174 15.7412 0.734575 15.7531 0.753791 15.7612C0.773008 15.7693 0.79365 15.7734 0.814502 15.7734H1.98638C2.07231 15.7734 2.14067 15.7051 2.14263 15.6211C2.18169 14.1133 2.78716 12.7012 3.85747 11.6309C4.96489 10.5234 6.4356 9.91406 8.002 9.91406C9.56841 9.91406 11.0391 10.5234 12.1465 11.6309C13.2168 12.7012 13.8223 14.1133 13.8614 15.6211C13.8633 15.707 13.9317 15.7734 14.0176 15.7734H15.1895C15.2104 15.7734 15.231 15.7693 15.2502 15.7612C15.2694 15.7531 15.2868 15.7412 15.3014 15.7263C15.316 15.7114 15.3274 15.6937 15.335 15.6743C15.3426 15.6549 15.3463 15.6341 15.3458 15.6133C15.3262 14.6797 15.1329 13.7715 14.7696 12.9141ZM8.002 8.42969C7.10552 8.42969 6.26177 8.08008 5.627 7.44531C4.99224 6.81055 4.64263 5.9668 4.64263 5.07031C4.64263 4.17383 4.99224 3.33008 5.627 2.69531C6.26177 2.06055 7.10552 1.71094 8.002 1.71094C8.89849 1.71094 9.74224 2.06055 10.377 2.69531C11.0118 3.33008 11.3614 4.17383 11.3614 5.07031C11.3614 5.9668 11.0118 6.81055 10.377 7.44531C9.74224 8.08008 8.89849 8.42969 8.002 8.42969Z" fill="black"/>
</svg>
