<svg width="22" height="24" viewBox="0 0 22 24" fill="none" xmlns="http://www.w3.org/2000/svg">
<path fill-rule="evenodd" clip-rule="evenodd" d="M10.9999 2.00673C7.13236 2.00673 3.9966 5.1425 3.9966 9.01007V17.2867H18.0033V9.01007C18.0033 5.1425 14.8675 2.00673 10.9999 2.00673ZM2.72327 9.01007C2.72327 4.43925 6.42912 0.733398 10.9999 0.733398C15.5707 0.733398 19.2766 4.43925 19.2766 9.01007V17.9234C19.2766 18.275 18.9916 18.5601 18.6399 18.5601H3.35993C3.00831 18.5601 2.72327 18.275 2.72327 17.9234V9.01007Z" fill="white"/>
<path fill-rule="evenodd" clip-rule="evenodd" d="M0.176636 22.3798C0.176636 22.0282 0.461681 21.7432 0.813302 21.7432H21.1866C21.5383 21.7432 21.8233 22.0282 21.8233 22.3798C21.8233 22.7315 21.5383 23.0165 21.1866 23.0165H0.813302C0.461681 23.0165 0.176636 22.7315 0.176636 22.3798Z" fill="white"/>
</svg>
