<svg width="22" height="24" viewBox="0 0 22 24" fill="none" xmlns="http://www.w3.org/2000/svg">
<path d="M21.25 11C21.4312 11 21.6063 11.0656 21.7429 11.1848C21.8795 11.3039 21.9684 11.4684 21.993 11.648L22 11.75V20.25C22.0001 21.21 21.632 22.1335 20.9716 22.8302C20.3111 23.5269 19.4086 23.9438 18.45 23.995L18.25 24H3.75C2.78984 24.0001 1.86623 23.6318 1.16948 22.9712C0.472742 22.3105 0.0559526 21.4078 0.00500011 20.449L0 20.249V11.749C0.000309697 11.5591 0.0726734 11.3763 0.202482 11.2377C0.33229 11.099 0.509873 11.0148 0.699378 11.0019C0.888883 10.9891 1.07619 11.0487 1.22349 11.1686C1.37079 11.2885 1.46711 11.4598 1.493 11.648L1.5 11.75V20.25C1.49993 20.8201 1.7163 21.369 2.10537 21.7858C2.49444 22.2025 3.02721 22.456 3.596 22.495L3.75 22.5H18.25C18.8201 22.5001 19.369 22.2837 19.7858 21.8946C20.2025 21.5056 20.456 20.9728 20.495 20.404L20.5 20.25V11.75C20.5 11.5511 20.579 11.3603 20.7197 11.2197C20.8603 11.079 21.0511 11 21.25 11ZM10.864 0.262L10.931 0.253L11.017 0.25L11.077 0.254L11.171 0.27L11.239 0.289L11.299 0.311L11.369 0.347L11.42 0.379L11.458 0.406L11.53 0.469L17.894 6.833C18.0285 6.96666 18.1074 7.14632 18.1148 7.33582C18.1222 7.52532 18.0576 7.71058 17.9339 7.85432C17.8102 7.99806 17.6366 8.08959 17.4481 8.1105C17.2596 8.13141 17.0702 8.08013 16.918 7.967L16.834 7.894L11.75 2.81V16.25C11.75 16.4312 11.6844 16.6063 11.5652 16.7429C11.4461 16.8795 11.2816 16.9684 11.102 16.993L11 17C10.8188 17 10.6437 16.9344 10.5071 16.8152C10.3705 16.6961 10.2816 16.5316 10.257 16.352L10.25 16.25V2.81L5.166 7.894C5.03901 8.02102 4.87066 8.09825 4.69155 8.11164C4.51244 8.12504 4.33447 8.07371 4.19 7.967L4.106 7.894C3.97898 7.76701 3.90175 7.59866 3.88836 7.41955C3.87496 7.24044 3.92629 7.06247 4.033 6.918L4.106 6.833L10.47 0.47L10.58 0.38L10.675 0.325L10.761 0.29L10.864 0.263V0.262Z" fill="white"/>
</svg>
