<svg width="16" height="20" viewBox="0 0 16 20" fill="none" xmlns="http://www.w3.org/2000/svg">
<path d="M7.86513 16.8205L8.00002 16.9437L8.13492 16.8205C9.98346 15.1317 11.36 13.5734 12.2757 12.1636C13.1901 10.7558 13.6546 9.48111 13.6546 8.36372C13.6546 4.95587 11.1585 2.52736 8.00002 2.52736C4.84152 2.52736 2.34548 4.95587 2.34548 8.36372C2.34548 9.48111 2.80995 10.7558 3.72434 12.1636C4.64003 13.5734 6.01658 15.1317 7.86513 16.8205ZM8.00002 9.80009C7.11048 9.80009 6.38184 9.07145 6.38184 8.18191C6.38184 7.29236 7.11048 6.56372 8.00002 6.56372C8.88957 6.56372 9.6182 7.29236 9.6182 8.18191C9.6182 9.07145 8.88957 9.80009 8.00002 9.80009ZM8.00002 1.10918C11.714 1.10918 15.0728 3.95303 15.0728 8.36372C15.0728 9.8189 14.4873 11.4277 13.2879 13.1958C12.1106 14.9314 10.3499 16.8085 8.00002 18.8277C5.65016 16.8085 3.88944 14.9314 2.71213 13.1958C1.51279 11.4277 0.927295 9.8189 0.927295 8.36372C0.927295 3.95303 4.28608 1.10918 8.00002 1.10918Z" fill="#989898" stroke="white" stroke-width="0.4"/>
</svg>
